<svg width="571" height="216" viewBox="0 0 571 216" fill="none" xmlns="http://www.w3.org/2000/svg">
<mask id="mask0_5_387" style="mask-type:alpha" maskUnits="userSpaceOnUse" x="2" y="17" width="565" height="203">
<path d="M53.298 21.012V33.89H35.814V87H19.74V33.89H2.256V21.012H53.298ZM110.809 59.928C110.809 61.432 110.715 62.9987 110.527 64.628H74.1491C74.3998 67.8867 75.4338 70.3933 77.2511 72.148C79.1311 73.84 81.4184 74.686 84.1131 74.686C88.1238 74.686 90.9124 72.994 92.4791 69.61H109.587C108.71 73.0567 107.112 76.1587 104.793 78.916C102.537 81.6733 99.6858 83.8353 96.2391 85.402C92.7924 86.9687 88.9384 87.752 84.6771 87.752C79.5384 87.752 74.9638 86.6553 70.9531 84.462C66.9424 82.2687 63.8091 79.1353 61.5531 75.062C59.2971 70.9887 58.1691 66.226 58.1691 60.774C58.1691 55.322 59.2658 50.5593 61.4591 46.486C63.7151 42.4127 66.8484 39.2793 70.8591 37.086C74.8698 34.8927 79.4758 33.796 84.6771 33.796C89.7531 33.796 94.2651 34.8613 98.2131 36.992C102.161 39.1227 105.232 42.162 107.425 46.11C109.681 50.058 110.809 54.664 110.809 59.928ZM94.3591 55.698C94.3591 52.9407 93.4191 50.7473 91.5391 49.118C89.6591 47.4887 87.3091 46.674 84.4891 46.674C81.7944 46.674 79.5071 47.4573 77.6271 49.024C75.8098 50.5907 74.6818 52.8153 74.2431 55.698H94.3591ZM135.363 17.44V87H119.289V17.44H135.363ZM163.086 17.44V87H147.012V17.44H163.086ZM191.458 60.68C191.458 55.2907 192.461 50.5593 194.466 46.486C196.534 42.4127 199.323 39.2793 202.832 37.086C206.342 34.8927 210.258 33.796 214.582 33.796C218.28 33.796 221.507 34.548 224.264 36.052C227.084 37.556 229.246 39.53 230.75 41.974V34.548H246.824V87H230.75V79.574C229.184 82.018 226.99 83.992 224.17 85.496C221.413 87 218.186 87.752 214.488 87.752C210.227 87.752 206.342 86.6553 202.832 84.462C199.323 82.206 196.534 79.0413 194.466 74.968C192.461 70.832 191.458 66.0693 191.458 60.68ZM230.75 60.774C230.75 56.7633 229.622 53.5987 227.366 51.28C225.173 48.9613 222.478 47.802 219.282 47.802C216.086 47.802 213.36 48.9613 211.104 51.28C208.911 53.536 207.814 56.6693 207.814 60.68C207.814 64.6907 208.911 67.8867 211.104 70.268C213.36 72.5867 216.086 73.746 219.282 73.746C222.478 73.746 225.173 72.5867 227.366 70.268C229.622 67.9493 230.75 64.7847 230.75 60.774ZM294.447 41.974C295.951 39.53 298.113 37.556 300.933 36.052C303.753 34.548 306.98 33.796 310.615 33.796C314.939 33.796 318.856 34.8927 322.365 37.086C325.874 39.2793 328.632 42.4127 330.637 46.486C332.705 50.5593 333.739 55.2907 333.739 60.68C333.739 66.0693 332.705 70.832 330.637 74.968C328.632 79.0413 325.874 82.206 322.365 84.462C318.856 86.6553 314.939 87.752 310.615 87.752C306.918 87.752 303.69 87.0313 300.933 85.59C298.176 84.086 296.014 82.112 294.447 79.668V87H278.373V17.44H294.447V41.974ZM317.383 60.68C317.383 56.6693 316.255 53.536 313.999 51.28C311.806 48.9613 309.08 47.802 305.821 47.802C302.625 47.802 299.899 48.9613 297.643 51.28C295.45 53.5987 294.353 56.7633 294.353 60.774C294.353 64.7847 295.45 67.9493 297.643 70.268C299.899 72.5867 302.625 73.746 305.821 73.746C309.017 73.746 311.743 72.5867 313.999 70.268C316.255 67.8867 317.383 64.6907 317.383 60.68ZM391.616 59.928C391.616 61.432 391.522 62.9987 391.334 64.628H354.956C355.206 67.8867 356.24 70.3933 358.058 72.148C359.938 73.84 362.225 74.686 364.92 74.686C368.93 74.686 371.719 72.994 373.286 69.61H390.394C389.516 73.0567 387.918 76.1587 385.6 78.916C383.344 81.6733 380.492 83.8353 377.046 85.402C373.599 86.9687 369.745 87.752 365.484 87.752C360.345 87.752 355.77 86.6553 351.76 84.462C347.749 82.2687 344.616 79.1353 342.36 75.062C340.104 70.9887 338.976 66.226 338.976 60.774C338.976 55.322 340.072 50.5593 342.266 46.486C344.522 42.4127 347.655 39.2793 351.666 37.086C355.676 34.8927 360.282 33.796 365.484 33.796C370.56 33.796 375.072 34.8613 379.02 36.992C382.968 39.1227 386.038 42.162 388.232 46.11C390.488 50.058 391.616 54.664 391.616 59.928ZM375.166 55.698C375.166 52.9407 374.226 50.7473 372.346 49.118C370.466 47.4887 368.116 46.674 365.296 46.674C362.601 46.674 360.314 47.4573 358.434 49.024C356.616 50.5907 355.488 52.8153 355.05 55.698H375.166ZM429.33 73.37V87H421.152C415.324 87 410.78 85.59 407.522 82.77C404.263 79.8873 402.634 75.2187 402.634 68.764V47.896H396.242V34.548H402.634V21.764H418.708V34.548H429.236V47.896H418.708V68.952C418.708 70.5187 419.084 71.6467 419.836 72.336C420.588 73.0253 421.841 73.37 423.596 73.37H429.33ZM467.517 73.37V87H459.339C453.511 87 448.968 85.59 445.709 82.77C442.45 79.8873 440.821 75.2187 440.821 68.764V47.896H434.429V34.548H440.821V21.764H456.895V34.548H467.423V47.896H456.895V68.952C456.895 70.5187 457.271 71.6467 458.023 72.336C458.775 73.0253 460.028 73.37 461.783 73.37H467.517ZM525.915 59.928C525.915 61.432 525.821 62.9987 525.633 64.628H489.255C489.505 67.8867 490.539 70.3933 492.357 72.148C494.237 73.84 496.524 74.686 499.219 74.686C503.229 74.686 506.018 72.994 507.585 69.61H524.693C523.815 73.0567 522.217 76.1587 519.899 78.916C517.643 81.6733 514.791 83.8353 511.345 85.402C507.898 86.9687 504.044 87.752 499.783 87.752C494.644 87.752 490.069 86.6553 486.059 84.462C482.048 82.2687 478.915 79.1353 476.659 75.062C474.403 70.9887 473.275 66.226 473.275 60.774C473.275 55.322 474.371 50.5593 476.565 46.486C478.821 42.4127 481.954 39.2793 485.965 37.086C489.975 34.8927 494.581 33.796 499.783 33.796C504.859 33.796 509.371 34.8613 513.319 36.992C517.267 39.1227 520.337 42.162 522.531 46.11C524.787 50.058 525.915 54.664 525.915 59.928ZM509.465 55.698C509.465 52.9407 508.525 50.7473 506.645 49.118C504.765 47.4887 502.415 46.674 499.595 46.674C496.9 46.674 494.613 47.4573 492.733 49.024C490.915 50.5907 489.787 52.8153 489.349 55.698H509.465ZM550.468 43.29C552.348 40.4073 554.698 38.1513 557.518 36.522C560.338 34.83 563.472 33.984 566.918 33.984V50.998H562.5C558.49 50.998 555.482 51.8753 553.476 53.63C551.471 55.322 550.468 58.33 550.468 62.654V87H534.394V34.548H550.468V43.29ZM21.902 149.974C23.406 147.53 25.568 145.556 28.388 144.052C31.208 142.548 34.4353 141.796 38.07 141.796C42.394 141.796 46.3107 142.893 49.82 145.086C53.3293 147.279 56.0867 150.413 58.092 154.486C60.16 158.559 61.194 163.291 61.194 168.68C61.194 174.069 60.16 178.832 58.092 182.968C56.0867 187.041 53.3293 190.206 49.82 192.462C46.3107 194.655 42.394 195.752 38.07 195.752C34.3727 195.752 31.1453 195.031 28.388 193.59C25.6307 192.086 23.4687 190.112 21.902 187.668V195H5.828V125.44H21.902V149.974ZM44.838 168.68C44.838 164.669 43.71 161.536 41.454 159.28C39.2607 156.961 36.5347 155.802 33.276 155.802C30.08 155.802 27.354 156.961 25.098 159.28C22.9047 161.599 21.808 164.763 21.808 168.774C21.808 172.785 22.9047 175.949 25.098 178.268C27.354 180.587 30.08 181.746 33.276 181.746C36.472 181.746 39.198 180.587 41.454 178.268C43.71 175.887 44.838 172.691 44.838 168.68ZM85.7008 151.29C87.5808 148.407 89.9308 146.151 92.7508 144.522C95.5708 142.83 98.7042 141.984 102.151 141.984V158.998H97.7328C93.7222 158.998 90.7142 159.875 88.7088 161.63C86.7035 163.322 85.7008 166.33 85.7008 170.654V195H69.6268V142.548H85.7008V151.29ZM106.638 168.68C106.638 163.291 107.641 158.559 109.646 154.486C111.714 150.413 114.503 147.279 118.012 145.086C121.521 142.893 125.438 141.796 129.762 141.796C133.459 141.796 136.687 142.548 139.444 144.052C142.264 145.556 144.426 147.53 145.93 149.974V142.548H162.004V195H145.93V187.574C144.363 190.018 142.17 191.992 139.35 193.496C136.593 195 133.365 195.752 129.668 195.752C125.407 195.752 121.521 194.655 118.012 192.462C114.503 190.206 111.714 187.041 109.646 182.968C107.641 178.832 106.638 174.069 106.638 168.68ZM145.93 168.774C145.93 164.763 144.802 161.599 142.546 159.28C140.353 156.961 137.658 155.802 134.462 155.802C131.266 155.802 128.54 156.961 126.284 159.28C124.091 161.536 122.994 164.669 122.994 168.68C122.994 172.691 124.091 175.887 126.284 178.268C128.54 180.587 131.266 181.746 134.462 181.746C137.658 181.746 140.353 180.587 142.546 178.268C144.802 175.949 145.93 172.785 145.93 168.774ZM205.593 141.984C211.734 141.984 216.622 143.989 220.257 148C223.954 151.948 225.803 157.4 225.803 164.356V195H209.823V166.518C209.823 163.009 208.914 160.283 207.097 158.34C205.279 156.397 202.835 155.426 199.765 155.426C196.694 155.426 194.25 156.397 192.433 158.34C190.615 160.283 189.707 163.009 189.707 166.518V195H173.633V142.548H189.707V149.504C191.336 147.185 193.529 145.368 196.287 144.052C199.044 142.673 202.146 141.984 205.593 141.984ZM233.777 168.68C233.777 163.291 234.779 158.559 236.785 154.486C238.853 150.413 241.641 147.279 245.151 145.086C248.66 142.893 252.577 141.796 256.901 141.796C260.347 141.796 263.481 142.517 266.301 143.958C269.183 145.399 271.439 147.342 273.069 149.786V125.44H289.143V195H273.069V187.48C271.565 189.987 269.403 191.992 266.583 193.496C263.825 195 260.598 195.752 256.901 195.752C252.577 195.752 248.66 194.655 245.151 192.462C241.641 190.206 238.853 187.041 236.785 182.968C234.779 178.832 233.777 174.069 233.777 168.68ZM273.069 168.774C273.069 164.763 271.941 161.599 269.685 159.28C267.491 156.961 264.797 155.802 261.601 155.802C258.405 155.802 255.679 156.961 253.423 159.28C251.229 161.536 250.133 164.669 250.133 168.68C250.133 172.691 251.229 175.887 253.423 178.268C255.679 180.587 258.405 181.746 261.601 181.746C264.797 181.746 267.491 180.587 269.685 178.268C271.941 175.949 273.069 172.785 273.069 168.774ZM342.029 195.752C337.455 195.752 333.381 194.969 329.809 193.402C326.237 191.835 323.417 189.705 321.349 187.01C319.281 184.253 318.122 181.182 317.871 177.798H333.757C333.945 179.615 334.791 181.088 336.295 182.216C337.799 183.344 339.648 183.908 341.841 183.908C343.847 183.908 345.382 183.532 346.447 182.78C347.575 181.965 348.139 180.931 348.139 179.678C348.139 178.174 347.356 177.077 345.789 176.388C344.223 175.636 341.685 174.821 338.175 173.944C334.415 173.067 331.282 172.158 328.775 171.218C326.269 170.215 324.107 168.68 322.289 166.612C320.472 164.481 319.563 161.63 319.563 158.058C319.563 155.05 320.378 152.324 322.007 149.88C323.699 147.373 326.143 145.399 329.339 143.958C332.598 142.517 336.452 141.796 340.901 141.796C347.481 141.796 352.651 143.425 356.411 146.684C360.234 149.943 362.427 154.267 362.991 159.656H348.139C347.889 157.839 347.074 156.397 345.695 155.332C344.379 154.267 342.625 153.734 340.431 153.734C338.551 153.734 337.11 154.11 336.107 154.862C335.105 155.551 334.603 156.523 334.603 157.776C334.603 159.28 335.387 160.408 336.953 161.16C338.583 161.912 341.089 162.664 344.473 163.416C348.359 164.419 351.523 165.421 353.967 166.424C356.411 167.364 358.542 168.931 360.359 171.124C362.239 173.255 363.211 176.137 363.273 179.772C363.273 182.843 362.396 185.6 360.641 188.044C358.949 190.425 356.474 192.305 353.215 193.684C350.019 195.063 346.291 195.752 342.029 195.752ZM402.341 181.37V195H394.163C388.335 195 383.792 193.59 380.533 190.77C377.275 187.887 375.645 183.219 375.645 176.764V155.896H369.253V142.548H375.645V129.764H391.719V142.548H402.247V155.896H391.719V176.952C391.719 178.519 392.095 179.647 392.847 180.336C393.599 181.025 394.853 181.37 396.607 181.37H402.341ZM435.171 195.752C430.032 195.752 425.395 194.655 421.259 192.462C417.185 190.269 413.958 187.135 411.577 183.062C409.258 178.989 408.099 174.226 408.099 168.774C408.099 163.385 409.289 158.653 411.671 154.58C414.052 150.444 417.311 147.279 421.447 145.086C425.583 142.893 430.22 141.796 435.359 141.796C440.497 141.796 445.135 142.893 449.271 145.086C453.407 147.279 456.665 150.444 459.047 154.58C461.428 158.653 462.619 163.385 462.619 168.774C462.619 174.163 461.397 178.926 458.953 183.062C456.571 187.135 453.281 190.269 449.083 192.462C444.947 194.655 440.309 195.752 435.171 195.752ZM435.171 181.84C438.241 181.84 440.842 180.712 442.973 178.456C445.166 176.2 446.263 172.973 446.263 168.774C446.263 164.575 445.197 161.348 443.067 159.092C440.999 156.836 438.429 155.708 435.359 155.708C432.225 155.708 429.625 156.836 427.557 159.092C425.489 161.285 424.455 164.513 424.455 168.774C424.455 172.973 425.457 176.2 427.463 178.456C429.531 180.712 432.1 181.84 435.171 181.84ZM487.22 151.29C489.1 148.407 491.45 146.151 494.27 144.522C497.09 142.83 500.224 141.984 503.67 141.984V158.998H499.252C495.242 158.998 492.234 159.875 490.228 161.63C488.223 163.322 487.22 166.33 487.22 170.654V195H471.146V142.548H487.22V151.29ZM564.933 142.548L532.033 219.91H514.737L526.769 193.214L505.431 142.548H523.385L535.511 175.354L547.543 142.548H564.933Z" fill="#111439"/>
</mask>
<g mask="url(#mask0_5_387)">
<rect y="19" width="565" height="197" fill="url(#paint0_linear_5_387)"/>
</g>
<defs>
<linearGradient id="paint0_linear_5_387" x1="23.4056" y1="19" x2="571.197" y2="196.922" gradientUnits="userSpaceOnUse">
<stop stop-color="#C87C00"/>
<stop offset="0.283806" stop-color="#8B3208"/>
<stop offset="0.673271" stop-color="#53200F" stop-opacity="0.82"/>
<stop offset="1" stop-color="#010420"/>
</linearGradient>
</defs>
</svg>
